<?xml version="1.0" encoding="UTF-8"?>
<svg id="Layer_1" data-name="Layer 1" xmlns="http://www.w3.org/2000/svg" xmlns:xlink="http://www.w3.org/1999/xlink" viewBox="0 0 595.28 841.89">
  <defs>
    <style>
      .cls-1 {
        letter-spacing: -.04em;
      }

      .cls-2 {
        fill: url(#linear-gradient-7);
      }

      .cls-2, .cls-3, .cls-4, .cls-5, .cls-6, .cls-7, .cls-8, .cls-9, .cls-10, .cls-11, .cls-12, .cls-13, .cls-14, .cls-15, .cls-16, .cls-17 {
        stroke: #231f20;
        stroke-miterlimit: 10;
      }

      .cls-2, .cls-3, .cls-4, .cls-5, .cls-6, .cls-7, .cls-8, .cls-9, .cls-10, .cls-12, .cls-13, .cls-14, .cls-15 {
        stroke-width: .5px;
      }

      .cls-3 {
        fill: url(#linear-gradient-5);
      }

      .cls-4 {
        fill: url(#linear-gradient-9);
      }

      .cls-5 {
        fill: url(#linear-gradient-8);
      }

      .cls-6 {
        fill: url(#linear-gradient-2);
      }

      .cls-7 {
        fill: url(#linear-gradient-4);
      }

      .cls-8 {
        fill: url(#linear-gradient-3);
      }

      .cls-9 {
        fill: url(#linear-gradient-6);
      }

      .cls-18 {
        letter-spacing: -.01em;
      }

      .cls-19 {
        letter-spacing: .09em;
      }

      .cls-20 {
        letter-spacing: -.08em;
      }

      .cls-21 {
        font-size: 16px;
      }

      .cls-21, .cls-22, .cls-23, .cls-24, .cls-25, .cls-26, .cls-27, .cls-28, .cls-29, .cls-30, .cls-31, .cls-32, .cls-33, .cls-34, .cls-35 {
        fill: #231f20;
      }

      .cls-21, .cls-22, .cls-24, .cls-26, .cls-27, .cls-28, .cls-29, .cls-30, .cls-31, .cls-32, .cls-33, .cls-34 {
        font-family: STIXTwoText, 'STIX Two Text';
        font-variation-settings: 'wght' 400;
      }

      .cls-36 {
        letter-spacing: .22em;
      }

      .cls-37 {
        letter-spacing: -.01em;
      }

      .cls-22 {
        font-size: 16.04px;
        letter-spacing: .02em;
      }

      .cls-38 {
        letter-spacing: .09em;
      }

      .cls-23 {
        font-size: 13.03px;
      }

      .cls-23, .cls-35 {
        font-family: Montserrat-ExtraLight, Montserrat;
        font-weight: 200;
      }

      .cls-39 {
        letter-spacing: 0em;
      }

      .cls-40 {
        letter-spacing: .01em;
      }

      .cls-41 {
        letter-spacing: .01em;
      }

      .cls-42 {
        letter-spacing: -.02em;
      }

      .cls-43 {
        letter-spacing: .01em;
      }

      .cls-44 {
        letter-spacing: -.02em;
      }

      .cls-45 {
        letter-spacing: .01em;
      }

      .cls-46 {
        letter-spacing: 0em;
      }

      .cls-47 {
        letter-spacing: .01em;
      }

      .cls-48 {
        letter-spacing: .01em;
      }

      .cls-49 {
        letter-spacing: .02em;
      }

      .cls-50, .cls-16 {
        fill: #fff;
      }

      .cls-51 {
        letter-spacing: .24em;
      }

      .cls-24, .cls-52 {
        letter-spacing: .02em;
      }

      .cls-24, .cls-33 {
        font-size: 10.75px;
      }

      .cls-53 {
        letter-spacing: .02em;
      }

      .cls-54 {
        letter-spacing: .02em;
      }

      .cls-55 {
        letter-spacing: .02em;
      }

      .cls-25 {
        font-family: TAN-PEARL-Regular, 'TAN - PEARL';
        font-size: 52.81px;
      }

      .cls-56 {
        letter-spacing: .02em;
      }

      .cls-57 {
        letter-spacing: .02em;
      }

      .cls-58 {
        letter-spacing: -.05em;
      }

      .cls-10 {
        fill: url(#linear-gradient);
      }

      .cls-59 {
        letter-spacing: -.05em;
      }

      .cls-60 {
        letter-spacing: .02em;
      }

      .cls-61 {
        letter-spacing: .02em;
      }

      .cls-62, .cls-28 {
        letter-spacing: .02em;
      }

      .cls-63 {
        letter-spacing: .02em;
      }

      .cls-64 {
        letter-spacing: 2.63em;
      }

      .cls-65 {
        letter-spacing: .02em;
      }

      .cls-66 {
        letter-spacing: .02em;
      }

      .cls-67 {
        letter-spacing: .02em;
      }

      .cls-68 {
        letter-spacing: .02em;
      }

      .cls-69 {
        letter-spacing: .02em;
      }

      .cls-11 {
        stroke-linecap: round;
      }

      .cls-11, .cls-17 {
        fill: none;
      }

      .cls-70 {
        letter-spacing: 0em;
      }

      .cls-71 {
        letter-spacing: .01em;
      }

      .cls-72 {
        letter-spacing: 1.99em;
      }

      .cls-26, .cls-28 {
        font-size: 10px;
      }

      .cls-73 {
        letter-spacing: 2.02em;
      }

      .cls-74 {
        letter-spacing: 2.02em;
      }

      .cls-75 {
        letter-spacing: 2.01em;
      }

      .cls-76 {
        letter-spacing: 2.02em;
      }

      .cls-12 {
        fill: url(#linear-gradient-11);
      }

      .cls-13 {
        fill: url(#linear-gradient-10);
      }

      .cls-14 {
        fill: url(#linear-gradient-12);
      }

      .cls-15 {
        fill: url(#linear-gradient-13);
      }

      .cls-27 {
        font-size: 18px;
      }

      .cls-77 {
        letter-spacing: .07em;
      }

      .cls-78 {
        letter-spacing: .02em;
      }

      .cls-79 {
        letter-spacing: .06em;
      }

      .cls-80 {
        letter-spacing: -.06em;
      }

      .cls-81 {
        letter-spacing: 0em;
      }

      .cls-82 {
        letter-spacing: -.23em;
      }

      .cls-83 {
        letter-spacing: -.05em;
      }

      .cls-84 {
        letter-spacing: 1.83em;
      }

      .cls-29 {
        font-size: 17.2px;
      }

      .cls-85 {
        letter-spacing: 0em;
      }

      .cls-86 {
        letter-spacing: 0em;
      }

      .cls-30 {
        font-size: 15.33px;
      }

      .cls-87 {
        letter-spacing: 1.47em;
      }

      .cls-88 {
        letter-spacing: 0em;
      }

      .cls-89 {
        letter-spacing: -.06em;
      }

      .cls-31 {
        font-size: 21px;
      }

      .cls-32 {
        font-size: 15.29px;
      }

      .cls-90 {
        letter-spacing: .11em;
      }

      .cls-91 {
        letter-spacing: -.07em;
      }

      .cls-34 {
        font-size: 10.75px;
      }

      .cls-92 {
        letter-spacing: .77em;
      }

      .cls-93 {
        letter-spacing: 0em;
      }

      .cls-35 {
        font-size: 10.91px;
      }

      .cls-94 {
        letter-spacing: 0em;
      }
    </style>
    <linearGradient id="linear-gradient" x1="238.62" y1="1670.91" x2="273.64" y2="1670.91" gradientTransform="translate(-8.36 1708.72) scale(1 -1)" gradientUnits="userSpaceOnUse">
      <stop offset=".05" stop-color="#010101"/>
      <stop offset=".5" stop-color="#b3b3b3"/>
      <stop offset="1" stop-color="#010101"/>
    </linearGradient>
    <linearGradient id="linear-gradient-2" x1="236.21" y1="1661.72" x2="240.16" y2="1661.72" xlink:href="#linear-gradient"/>
    <linearGradient id="linear-gradient-3" x1="267.48" y1="1666.01" x2="276.63" y2="1666.01" xlink:href="#linear-gradient"/>
    <linearGradient id="linear-gradient-4" x1="255.06" y1="1659.74" x2="267.48" y2="1659.74" xlink:href="#linear-gradient"/>
    <linearGradient id="linear-gradient-5" x1="234.46" y1="1656.78" x2="267.65" y2="1656.78" xlink:href="#linear-gradient"/>
    <linearGradient id="linear-gradient-6" x1="233.68" y1="1651.7" x2="270.09" y2="1651.7" xlink:href="#linear-gradient"/>
    <linearGradient id="linear-gradient-7" x1="269.97" y1="1654.54" x2="273.34" y2="1654.54" xlink:href="#linear-gradient"/>
    <linearGradient id="linear-gradient-8" x1="275.9" y1="1662.62" x2="282.91" y2="1662.62" xlink:href="#linear-gradient"/>
    <linearGradient id="linear-gradient-9" x1="283.02" y1="1664.28" x2="285.3" y2="1664.28" xlink:href="#linear-gradient"/>
    <linearGradient id="linear-gradient-10" x1="285.06" y1="1667.98" x2="286.3" y2="1667.98" xlink:href="#linear-gradient"/>
    <linearGradient id="linear-gradient-11" x1="249.17" y1="1675.71" x2="283.15" y2="1675.71" xlink:href="#linear-gradient"/>
    <linearGradient id="linear-gradient-12" x1="250.66" y1="1674.71" x2="273.58" y2="1674.71" xlink:href="#linear-gradient"/>
    <linearGradient id="linear-gradient-13" x1="274.58" y1="1657.27" x2="283.16" y2="1657.27" xlink:href="#linear-gradient"/>
  </defs>
  <rect class="cls-16" x="49.91" y="231.54" width="509.08" height="587.48"/>
  <text class="cls-31" transform="translate(216.06 261.1)"><tspan class="cls-89" x="0" y="0">V</tspan><tspan x="12.92" y="0">ehicle Information</tspan></text>
  <text class="cls-27" transform="translate(213.3 121.43)"><tspan class="cls-91" x="0" y="0">T</tspan><tspan x="9.59" y="0">op </tspan><tspan class="cls-18" x="32.74" y="0">N</tspan><tspan x="45.92" y="0">o</tspan><tspan class="cls-85" x="55.17" y="0">t</tspan><tspan x="60.75" y="0">ch </tspan><tspan class="cls-44" x="83.39" y="0">A</tspan><tspan x="95.96" y="0">u</tspan><tspan class="cls-46" x="106.22" y="0">t</tspan><tspan x="111.8" y="0">ohub Inc.</tspan><tspan x="-68.19" y="21.6">1380 Sar</tspan><tspan class="cls-93" x="-3.77" y="21.6">g</tspan><tspan x="5.03" y="21.6">ent </tspan><tspan class="cls-83" x="33.65" y="21.6">A</tspan><tspan class="cls-85" x="45.68" y="21.6">v</tspan><tspan x="54.24" y="21.6">e,</tspan><tspan class="cls-42" x="67.01" y="21.6"> </tspan><tspan x="70.88" y="21.6">Winnipeg, MB R3E 0G5</tspan><tspan x="-47.38" y="43.2">email: </tspan><tspan class="cls-85" x="3.82" y="43.2">t</tspan><tspan x="9.4" y="43.2">opno</tspan><tspan class="cls-85" x="47.93" y="43.2">t</tspan><tspan x="53.51" y="43.2">chau</tspan><tspan class="cls-85" x="90.83" y="43.2">t</tspan><tspan x="96.41" y="43.2">ohub@gmail.com</tspan></text>
  <text class="cls-21" transform="translate(62.8 212.21)"><tspan x="0" y="0">P</tspan><tspan class="cls-88" x="9.1" y="0">S</tspan><tspan x="17.01" y="0">T#</tspan></text>
  <text class="cls-21" transform="translate(434.28 212.69)"><tspan x="0" y="0">Da</tspan><tspan class="cls-39" x="19.36" y="0">t</tspan><tspan x="24.32" y="0">e</tspan></text>
  <line class="cls-17" x1="49.91" y1="280.94" x2="558.99" y2="280.94"/>
  <line class="cls-17" x1="48.19" y1="345.58" x2="558.38" y2="345.58"/>
  <text class="cls-32" transform="translate(77.83 304.57)"><tspan class="cls-80" x="0" y="0">Y</tspan><tspan class="cls-69" x="8.99" y="0">ear</tspan><tspan class="cls-79" x="30.21" y="0">	</tspan><tspan class="cls-72" x="34.73" y="0">	</tspan><tspan class="cls-76" x="68.82" y="0">	</tspan><tspan class="cls-68" x="103.23" y="0">Ma</tspan><tspan class="cls-81" x="124.9" y="0">k</tspan><tspan class="cls-69" x="133.13" y="0">e</tspan><tspan class="cls-84" x="140.55" y="0">	</tspan><tspan class="cls-75" x="172.06" y="0" xml:space="preserve">		</tspan><tspan class="cls-55" x="240.88" y="0">Model</tspan><tspan class="cls-87" x="283.7" y="0">	</tspan><tspan class="cls-76" x="309.7" y="0" xml:space="preserve">		</tspan><tspan class="cls-20" x="378.52" y="0">V</tspan><tspan class="cls-69" x="387.71" y="0">.I.</tspan><tspan class="cls-94" x="401.63" y="0">N</tspan><tspan class="cls-61" x="412.99" y="0">.</tspan></text>
  <line class="cls-17" x1="49.91" y1="412.49" x2="560.11" y2="412.49"/>
  <rect class="cls-17" x="78.1" y="371.8" width="39.15" height="32.66"/>
  <rect class="cls-17" x="125.85" y="371.8" width="39.15" height="32.66"/>
  <g>
    <rect class="cls-17" x="460.01" y="371.8" width="39.15" height="32.66"/>
    <rect class="cls-17" x="407.27" y="371.8" width="39.15" height="32.66"/>
  </g>
  <text class="cls-30" transform="translate(72.17 364.43)"><tspan class="cls-60" x="0" y="0"> </tspan><tspan class="cls-43" x="3.92" y="0">N</tspan><tspan class="cls-66" x="15.46" y="0">ew</tspan><tspan class="cls-82" x="34.7" y="0">	</tspan><tspan class="cls-60" x="34.81" y="0" xml:space="preserve">       Used</tspan><tspan class="cls-36" x="96.51" y="0">	</tspan><tspan class="cls-73" x="103.46" y="0">	</tspan><tspan class="cls-60" x="137.95" y="0" xml:space="preserve">                Odome</tspan><tspan class="cls-78" x="249.94" y="0">t</tspan><tspan class="cls-60" x="255.01" y="0">er</tspan><tspan class="cls-51" x="268.59" y="0">	</tspan><tspan class="cls-74" x="275.89" y="0">	</tspan><tspan class="cls-54" x="310.38" y="0" xml:space="preserve">        KMs       Miles</tspan></text>
  <line class="cls-17" x1="304.45" y1="449.16" x2="304.45" y2="819.02"/>
  <line class="cls-17" x1="49.91" y1="449.16" x2="558.99" y2="449.16"/>
  <text class="cls-22" transform="translate(61.23 435.91)"><tspan x="0" y="0">Comments</tspan></text>
  <text class="cls-29" transform="translate(98.78 468.55) scale(.93 1)"><tspan class="cls-63" x="0" y="0">Pu</tspan><tspan class="cls-48" x="20.32" y="0">r</tspan><tspan class="cls-67" x="27.04" y="0">chaser Information</tspan></text>
  <text class="cls-29" transform="translate(369.07 468.74) scale(.93 1)"><tspan class="cls-58" x="0" y="0">T</tspan><tspan class="cls-63" x="9.53" y="0">erms o</tspan><tspan class="cls-77" x="60.55" y="0">f</tspan><tspan class="cls-63" x="67.05" y="0" xml:space="preserve"> Pu</tspan><tspan class="cls-48" x="91.77" y="0">r</tspan><tspan class="cls-63" x="98.5" y="0">chase</tspan></text>
  <line class="cls-17" x1="51.03" y1="481.77" x2="560.11" y2="481.77"/>
  <line class="cls-17" x1="49.72" y1="534.92" x2="558.79" y2="534.92"/>
  <line class="cls-17" x1="50.04" y1="582.13" x2="559.12" y2="582.13"/>
  <line class="cls-17" x1="51.03" y1="630.63" x2="560.11" y2="630.63"/>
  <line class="cls-17" x1="49.01" y1="681.41" x2="303.55" y2="681.41"/>
  <line class="cls-17" x1="49.91" y1="776.15" x2="560.11" y2="776.15"/>
  <line class="cls-17" x1="50.17" y1="726.89" x2="558.99" y2="726.89"/>
  <text class="cls-33" transform="translate(55.61 495.94) scale(.93 1)"><tspan class="cls-52" x="0" y="0">Pu</tspan><tspan class="cls-41" x="12.7" y="0">r</tspan><tspan class="cls-52" x="16.9" y="0">chaser </tspan><tspan class="cls-41" x="50.49" y="0">N</tspan><tspan class="cls-52" x="58.58" y="0" xml:space="preserve">ame           First           Middle             Last</tspan></text>
  <text class="cls-33" transform="translate(54.85 549.66) scale(.93 1)"><tspan class="cls-52" x="0" y="0">Pu</tspan><tspan class="cls-41" x="12.7" y="0">r</tspan><tspan class="cls-52" x="16.9" y="0">chaser </tspan><tspan class="cls-41" x="50.49" y="0">A</tspan><tspan class="cls-53" x="58.32" y="0">dd</tspan><tspan class="cls-41" x="70.37" y="0">r</tspan><tspan class="cls-52" x="74.57" y="0">ess</tspan></text>
  <text class="cls-33" transform="translate(54.49 596.01) scale(.93 1)"><tspan class="cls-52" x="0" y="0">City/A</tspan><tspan class="cls-41" x="32.08" y="0">r</tspan><tspan class="cls-52" x="36.29" y="0">ea</tspan><tspan class="cls-64" x="46.89" y="0">	</tspan><tspan class="cls-52" x="77.63" y="0" xml:space="preserve">         P</tspan><tspan class="cls-41" x="108.75" y="0">r</tspan><tspan class="cls-52" x="112.95" y="0">ovince</tspan><tspan class="cls-92" x="144.04" y="0">	</tspan><tspan class="cls-52" x="154.82" y="0" xml:space="preserve">               </tspan><tspan class="cls-70" x="196.09" y="0">P</tspan><tspan class="cls-52" x="202.11" y="0">ostal Code</tspan></text>
  <text class="cls-24" transform="translate(55.61 643.04) scale(.93 1)"><tspan x="0" y="0">Phone Number</tspan></text>
  <text class="cls-33" transform="translate(56.37 692.75) scale(.93 1)"><tspan class="cls-52" x="0" y="0">Pu</tspan><tspan class="cls-41" x="12.7" y="0">r</tspan><tspan class="cls-52" x="16.9" y="0">chaser Signatu</tspan><tspan class="cls-41" x="86.62" y="0">r</tspan><tspan class="cls-52" x="90.82" y="0">e</tspan></text>
  <text class="cls-33" transform="translate(55.61 738.23) scale(.93 1)"><tspan class="cls-52" x="0" y="0">Dealer/ Salesperson Signatu</tspan><tspan class="cls-47" x="133.65" y="0">r</tspan><tspan class="cls-52" x="137.85" y="0">e</tspan></text>
  <text class="cls-33" transform="translate(54.85 790.11) scale(.93 1)"><tspan class="cls-52" x="0" y="0">Dealer/ Salesperson </tspan><tspan class="cls-47" x="97.51" y="0">N</tspan><tspan class="cls-52" x="105.61" y="0">amet</tspan></text>
  <text class="cls-33" transform="translate(314.49 495.82) scale(.93 1)"><tspan class="cls-52" x="0" y="0">Pu</tspan><tspan class="cls-41" x="12.7" y="0">r</tspan><tspan class="cls-52" x="16.9" y="0">chase Price</tspan></text>
  <text class="cls-24" transform="translate(315.25 549.66) scale(.93 1)"><tspan x="0" y="0">Other</tspan></text>
  <text class="cls-33" transform="translate(315.25 596.01) scale(.93 1)"><tspan class="cls-52" x="0" y="0">Sub</tspan><tspan class="cls-49" x="17.84" y="0">t</tspan><tspan class="cls-56" x="21.39" y="0">otal</tspan></text>
  <text class="cls-33" transform="translate(315.67 643.04) scale(.93 1)"><tspan class="cls-1" x="0" y="0">T</tspan><tspan class="cls-56" x="6.06" y="0">a</tspan><tspan class="cls-71" x="11.45" y="0">x</tspan><tspan class="cls-52" x="16.72" y="0">es</tspan></text>
  <text class="cls-26" transform="translate(316.1 737.1)"><tspan class="cls-59" x="0" y="0">T</tspan><tspan class="cls-62" x="5.54" y="0">otal Pu</tspan><tspan class="cls-40" x="36.67" y="0">r</tspan><tspan class="cls-62" x="40.58" y="0">chase Price</tspan></text>
  <text class="cls-28" transform="translate(315.25 790.11)"><tspan x="0" y="0">Comments</tspan></text>
  <text class="cls-25" transform="translate(300.74 72.49)"><tspan x="0" y="0">TN</tspan></text>
  <text class="cls-35" transform="translate(317.83 83.48)"><tspan class="cls-38" x="0" y="0">AU</tspan><tspan class="cls-19" x="18.22" y="0">T</tspan><tspan class="cls-90" x="25.31" y="0">OHUB</tspan></text>
  <rect class="cls-50" x="305.84" y="37.36" width="96" height="16.43"/>
  <text class="cls-23" transform="translate(310.44 50.64)"><tspan class="cls-86" x="0" y="0">T</tspan><tspan x="7.1" y="0">OP N</tspan><tspan class="cls-37" x="41.19" y="0">OT</tspan><tspan x="59.06" y="0">CH </tspan></text>
  <g>
    <g id="Objects">
      <g>
        <path class="cls-10" d="m265.24,31.58s0,.17.02.48c.01.32.03.78.02,1.37-.01.59-.04,1.3-.13,2.12-.05.41-.11.84-.22,1.3-.06.23-.12.46-.21.69-.08.23-.19.47-.33.69-.14.22-.33.44-.6.58-.06.04-.14.05-.21.08-.07.03-.15.03-.22.04-.08.01-.14,0-.21,0-.07,0-.14,0-.21,0-.55-.02-1.11-.05-1.69-.09-1.15-.08-2.37-.17-3.62-.28-1.26-.11-2.55-.22-3.87-.33-1.32-.11-2.66-.22-3.99-.32-1.34-.1-2.68-.19-3.99-.26-1.32-.06-2.62-.12-3.86-.07-.31.02-.62.04-.91.08-.14.02-.29.05-.41.09l-.09.03-.1.05-.2.1c-.55.26-1.08.53-1.59.78-1.03.52-2,1.03-2.88,1.51-.88.49-1.68.94-2.38,1.37-.7.43-1.29.82-1.76,1.18-.47.35-.82.66-1.03.89-.1.12-.18.21-.23.28-.05.07-.07.1-.07.1,0,0,.02-.03.07-.1.04-.07.12-.16.22-.29.2-.24.53-.57.99-.94.46-.37,1.03-.8,1.72-1.25.68-.46,1.47-.95,2.34-1.46.87-.51,1.83-1.04,2.85-1.59.51-.27,1.04-.55,1.58-.83l.2-.1.1-.05.13-.05c.16-.06.32-.09.48-.12.32-.05.63-.08.95-.1,1.27-.07,2.58-.03,3.9.03,1.32.06,2.67.15,4.01.24,1.34.1,2.68.22,4,.33,1.32.12,2.61.25,3.87.37,1.25.12,2.46.24,3.61.35.57.05,1.13.1,1.67.13.07,0,.13,0,.2,0,.06,0,.14,0,.19,0,.06,0,.11,0,.17-.02.05-.02.11-.03.16-.06.2-.1.37-.27.5-.47.27-.4.42-.86.54-1.29.12-.44.2-.86.27-1.26.13-.8.18-1.52.22-2.1.07-1.17.05-1.85.05-1.85h0Z"/>
        <path class="cls-6" d="m230.25,44.06c.15.19.29.39.42.6.13.21.26.41.38.63.12.22.23.44.33.66.05.11.09.23.14.35.02.06.04.12.06.18s.04.12.05.19l.02.1s0,.07.01.1l.02.18.04.36c.01.12.03.24.03.36l.02.37c.01.25.03.49.03.74,0,.24,0,.49,0,.73v.34s-.32-.13-.32-.13c-.34-.14-.66-.29-.99-.45-.16-.08-.32-.16-.48-.25-.16-.08-.32-.17-.48-.26-.16-.09-.31-.18-.46-.28-.15-.1-.3-.2-.45-.31l-.22-.17c-.07-.06-.14-.12-.2-.18-.07-.06-.13-.13-.19-.2-.06-.07-.1-.15-.16-.22.07.06.12.13.2.18s.14.11.22.15c.15.1.3.18.46.27.16.08.32.16.48.24.16.08.32.15.48.22.32.15.65.28.98.43l.49.2.49.2-.32.22c0-.24,0-.48-.01-.72,0-.24,0-.48-.02-.72,0-.24-.01-.48-.03-.72l-.02-.36v-.18s-.01-.07-.02-.08v-.08c-.02-.05-.03-.11-.04-.17-.01-.06-.02-.11-.04-.17-.03-.11-.06-.23-.1-.34-.08-.22-.15-.45-.24-.67-.09-.22-.18-.45-.28-.67-.09-.22-.19-.45-.29-.67h0Z"/>
        <path class="cls-8" d="m268.27,39.42s-.14.11-.38.3c-.25.19-.59.46-1.02.77-.43.32-.92.69-1.46,1.07-.27.19-.54.4-.82.6-.28.2-.57.4-.85.61-.29.2-.57.41-.85.61-.14.1-.28.2-.42.3-.14.1-.27.2-.41.29-.53.39-1.05.73-1.48,1.04-.86.62-1.46,1-1.46,1,0,0,.5-.5,1.29-1.21.1-.09.2-.18.31-.28.11-.09.22-.19.34-.28.23-.19.48-.4.74-.6.26-.21.52-.43.81-.63.28-.21.56-.42.85-.63.29-.21.58-.41.87-.6.29-.2.57-.38.85-.57.28-.18.55-.35.81-.51.26-.16.5-.31.73-.44.46-.27.85-.48,1.12-.63.14-.07.25-.13.32-.16.07-.04.11-.06.11-.06h0Z"/>
        <path class="cls-7" d="m259.12,46.02s-.4.09-1.09.24c-.69.15-1.68.38-2.85.68-.59.15-1.21.33-1.87.54-.16.06-.33.11-.49.17-.16.06-.33.13-.5.19-.16.07-.32.15-.49.22-.08.04-.15.09-.23.13l-.12.07-.12.08c-.62.42-1.23.9-1.86,1.39-.62.49-1.24,1.01-1.83,1.55-.15.13-.3.27-.43.41-.03.03-.06.07-.09.1v.02s-.02,0,0-.02c0-.01,0-.02,0-.03,0-.04,0-.09-.02-.13-.03-.08-.13-.12-.14-.12-.01-.01-.1,0-.08,0h.04s.3-.05.3-.05c.4-.06.8-.12,1.19-.17.79-.12,1.57-.22,2.32-.33.75-.1,1.48-.2,2.17-.29.69-.09,1.34-.18,1.94-.26,1.2-.16,2.21-.27,2.91-.35.35-.04.63-.07.82-.09.19-.02.29-.03.29-.03,0,0-.1.02-.29.06-.19.04-.46.09-.81.16-.7.13-1.69.32-2.89.53-1.2.22-2.6.45-4.1.69-.75.12-1.52.25-2.31.37-.39.06-.79.12-1.19.18l-.3.05h-.04s-.07,0-.09,0c-.02,0-.13-.05-.16-.13-.03-.05-.03-.11-.02-.15,0-.02,0-.04.01-.05.02-.05.03-.07.05-.08l.03-.04c.04-.05.08-.09.11-.13.15-.16.3-.29.45-.43.61-.55,1.24-1.06,1.87-1.56.63-.5,1.27-.96,1.91-1.38l.12-.08.13-.07c.09-.05.17-.09.26-.14.18-.07.35-.15.53-.22.18-.06.35-.12.52-.18.17-.05.34-.1.51-.16.67-.19,1.32-.34,1.91-.47.6-.13,1.15-.23,1.63-.31.49-.08.91-.15,1.26-.2.35-.05.63-.08.82-.11.19-.02.29-.03.29-.03h0Z"/>
        <path class="cls-3" d="m227.59,47.52c-.19-.04-.39.02-.55.13-.16.11-.28.26-.37.44-.18.34-.27.72-.33,1.11-.03.19-.04.39-.06.58l-.02.58v.58s.01.1.02.14c.01.04.01.08.03.12l.05.13.07.12c.04.08.1.16.15.23l.08.11.1.1c.07.07.13.14.2.2l.22.18c.14.13.3.23.46.34.08.05.16.11.24.16l.25.14c.67.39,1.4.66,2.13.92.37.12.74.23,1.11.34.18.06.37.1.56.15l.57.14.57.14.57.11c.38.07.76.15,1.15.22l1.15.18c.38.06.77.12,1.16.16l1.16.14.58.07.58.05,1.17.11.58.05.58.04c.78.05,1.55.11,2.33.13l1.17.04h1.17c.78.02,1.56,0,2.34-.02.39-.01.78-.04,1.17-.05.2-.01.39-.02.58-.03l.58-.05c.78-.05,1.55-.13,2.33-.22.77-.1,1.55-.21,2.31-.35.76-.14,1.53-.31,2.27-.53l-.05.03c.06-.07.13-.16.19-.24.06-.08.12-.17.17-.25.11-.17.21-.35.3-.54.04-.09.09-.19.13-.28l.12-.29.1-.29c.03-.1.05-.2.08-.3l.04-.15.03-.15c.02-.1.04-.2.05-.31l.03-.31c.01-.1,0-.21.01-.31,0-.1.01-.21,0-.31l-.02-.31c0-.1-.02-.21-.04-.31l-.05-.31.06.31c.02.1.05.2.05.31l.03.31c.02.1,0,.21.01.31,0,.11.01.21,0,.32l-.02.32c0,.11-.03.21-.04.31l-.02.16-.03.16c-.02.1-.04.21-.07.31l-.09.3-.11.3c-.04.1-.08.2-.12.29-.09.19-.18.38-.29.57-.05.09-.11.18-.17.27-.06.09-.12.18-.19.26l-.02.02h-.03c-.75.27-1.52.45-2.28.62-.77.17-1.54.3-2.32.41-.78.11-1.56.21-2.34.28l-.59.05c-.2.02-.39.03-.59.04-.39.02-.78.05-1.18.07-.78.02-1.57.06-2.36.05h-1.18s-1.18-.04-1.18-.04c-.78-.01-1.57-.07-2.36-.12l-.59-.04-.58-.05-1.17-.11-.59-.06-.58-.07-1.17-.15c-.39-.05-.78-.11-1.16-.18l-1.16-.2c-.39-.07-.77-.16-1.15-.24l-.58-.12c-.19-.05-.38-.1-.57-.15l-.57-.15c-.19-.05-.38-.1-.57-.16-.37-.13-.75-.24-1.12-.37-.74-.29-1.47-.58-2.15-1l-.26-.15c-.08-.05-.16-.11-.24-.17-.16-.12-.33-.23-.47-.37l-.22-.2c-.07-.07-.13-.15-.2-.23l-.1-.11-.09-.13c-.06-.09-.12-.17-.16-.26l-.07-.14-.05-.15s-.02-.11-.03-.16c0-.06,0-.1,0-.15v-.59s.05-.59.05-.59c.03-.2.05-.39.08-.59.07-.39.18-.78.38-1.12.1-.17.24-.32.4-.43.17-.1.38-.15.57-.1h0Z"/>
        <path class="cls-9" d="m226.09,52.1c-.17.37-.31.75-.41,1.14-.1.39-.18.79-.21,1.19-.03.4-.02.8.05,1.19.07.39.19.77.38,1.12.19.34.42.67.73.9.3.23.66.42,1.02.58.73.33,1.49.59,2.26.82.77.23,1.55.42,2.34.6.78.18,1.57.34,2.37.49.4.08.79.14,1.19.21l1.19.19c.8.12,1.6.23,2.4.32.8.1,1.6.18,2.41.26l1.21.11,1.21.09,1.21.07,1.21.06c.81.04,1.61.07,2.42.09.4.01.81.02,1.21.02.4,0,.81.02,1.21.01h1.21l1.21-.02c.4,0,.81-.02,1.21-.03.4,0,.81-.03,1.21-.05.81-.03,1.61-.07,2.42-.12h-.02c.27-.08.54-.19.8-.29.26-.11.53-.23.78-.36.06-.03.13-.07.19-.1.06-.03.13-.07.19-.1.12-.07.25-.14.37-.22.06-.04.12-.08.18-.12.06-.04.12-.08.17-.13.05-.05.11-.09.16-.14l.15-.15-.14.16c-.05.05-.1.1-.16.15-.05.05-.11.1-.16.14s-.11.09-.17.13c-.12.09-.24.17-.36.25-.06.04-.12.07-.19.11-.06.04-.12.07-.19.11-.25.14-.51.27-.78.39-.26.12-.53.23-.8.34h0s-.01,0-.01,0c-.81.07-1.61.16-2.42.21-.4.03-.81.06-1.21.08-.4.02-.81.05-1.21.06l-1.21.05-1.22.03c-.81.01-1.62.02-2.43.01-.81,0-1.62-.03-2.43-.05s-1.62-.07-2.43-.12l-1.21-.09-1.21-.1c-.81-.07-1.61-.16-2.42-.26-.81-.1-1.61-.21-2.41-.33-.8-.13-1.6-.27-2.4-.42s-1.59-.33-2.38-.52c-.79-.2-1.57-.41-2.35-.67-.77-.25-1.54-.53-2.28-.89-.37-.18-.73-.38-1.06-.65-.08-.07-.17-.14-.24-.21l-.1-.11h-.01s0-.02,0-.02c0,0-.02-.02-.01-.01l-.02-.03-.05-.06c-.12-.17-.23-.35-.32-.54-.18-.38-.29-.78-.35-1.19-.05-.41-.05-.82,0-1.23.1-.81.36-1.6.74-2.31h0Z"/>
        <path class="cls-2" d="m264.98,48.36s-.05-.04-.16-.11c-.11-.07-.28-.16-.5-.21-.22-.06-.51-.06-.75.1-.12.08-.24.19-.33.33-.1.14-.18.3-.26.48-.15.36-.24.78-.33,1.23-.08.45-.13.94-.17,1.45-.04.51-.06,1.03-.07,1.57-.01.54-.01,1.08,0,1.63,0,.55.01,1.1.03,1.63.02.54.05,1.06.1,1.57.05.5.11.99.23,1.41.06.21.14.4.24.53.1.13.17.16.3.13.14-.03.29-.15.41-.26.13-.12.25-.25.35-.37.21-.26.37-.49.51-.69.26-.4.4-.64.4-.64,0,0-.02.07-.06.19-.04.12-.11.3-.2.53-.1.22-.22.5-.4.8-.09.15-.19.3-.32.46-.13.15-.29.32-.54.43-.13.05-.3.08-.46.03-.16-.04-.29-.14-.39-.25-.2-.21-.3-.45-.4-.69-.18-.48-.29-.99-.37-1.51-.08-.53-.13-1.07-.17-1.62-.04-.55-.05-1.11-.06-1.66,0-.56,0-1.11.03-1.67.02-.28.03-.55.06-.82.02-.27.05-.54.09-.8.06-.52.16-1.03.29-1.5.12-.47.28-.92.5-1.3.21-.38.5-.72.86-.88.18-.08.36-.11.52-.09.16.01.3.06.42.11.23.1.38.24.48.33.09.09.14.15.14.15h0Z"/>
        <path class="cls-5" d="m267.54,51.72s.17-.14.46-.39.71-.61,1.2-1.06c.24-.22.5-.47.78-.73.27-.26.55-.54.84-.84.29-.29.57-.61.86-.93.29-.32.56-.66.82-1,.26-.35.51-.7.73-1.06.22-.36.42-.73.58-1.1.08-.18.14-.37.21-.55.03-.09.05-.18.08-.27.01-.05.03-.09.04-.13.01-.05.02-.09.03-.13.03-.18.07-.35.07-.53,0-.09.01-.17.02-.25,0-.08,0-.16-.01-.24,0-.08,0-.16-.01-.23-.01-.07-.03-.15-.04-.22s-.02-.14-.04-.21c-.02-.07-.04-.13-.06-.19-.07-.26-.18-.46-.26-.63-.09-.17-.18-.29-.23-.38-.05-.09-.08-.13-.08-.13,0,0,.04.04.11.12.03.04.08.09.13.14.05.06.11.12.16.2.1.17.25.36.35.62.03.06.06.13.09.2.02.07.04.14.07.22.02.08.04.15.07.23.02.08.03.16.04.25.01.09.02.17.03.26,0,.09,0,.18,0,.27.01.19-.02.38-.04.57,0,.05-.01.1-.02.15-.01.05-.02.1-.03.15-.02.1-.04.2-.07.3-.02.1-.06.2-.09.3-.03.1-.06.2-.1.3-.08.2-.16.4-.26.59-.05.1-.1.2-.15.3-.06.09-.11.19-.17.29-.22.38-.48.75-.75,1.11-.28.35-.56.7-.86,1.02-.15.16-.3.32-.45.47-.15.15-.3.3-.45.45-.3.29-.61.55-.9.8-.29.25-.57.47-.84.67-.53.4-.99.72-1.32.92s-.52.32-.52.32h0Z"/>
        <path class="cls-4" d="m276.75,40.99s-.03-.03-.1-.07c-.07-.05-.17-.11-.3-.16-.13-.05-.3-.09-.43-.03-.13.06-.23.22-.3.43-.07.21-.12.47-.14.75-.03.28-.04.57-.05.88,0,.15,0,.31,0,.47,0,.16,0,.32,0,.49,0,.33.02.66.03,1,0,.17.01.34.02.51,0,.17.02.33.03.5.01.16.02.33.03.49.01.16.03.32.04.47.03.31.07.6.14.85.03.13.07.24.12.32.01.02.02.03.03.05,0,0,.02.02.02.03.01,0,0,.02.03.02.04,0,.13-.04.21-.1.08-.06.15-.14.22-.21.13-.15.24-.3.32-.42.17-.24.26-.39.26-.39,0,0,0,.04-.03.12-.02.08-.05.2-.1.34s-.11.32-.21.52c-.05.1-.11.2-.19.31-.09.1-.19.22-.4.29-.05.02-.11.02-.17.01-.06,0-.12-.03-.18-.05-.05-.03-.09-.06-.14-.09-.04-.03-.07-.07-.1-.1-.12-.14-.2-.29-.26-.44-.12-.3-.21-.62-.27-.94-.06-.33-.11-.66-.15-1-.01-.17-.04-.35-.04-.52,0-.17-.02-.34-.03-.51,0-.17,0-.35-.01-.52,0-.17,0-.34,0-.52,0-.34.03-.68.06-1.01.03-.33.09-.65.16-.94.07-.3.17-.58.31-.84.08-.12.16-.24.27-.34.11-.1.24-.17.38-.19.14-.02.26,0,.36.04.1.04.17.09.24.14.13.1.2.2.25.26.05.07.07.11.07.11h0Z"/>
        <path class="cls-13" d="m277.29,43.09s0-.02.02-.05c.01-.03.03-.09.05-.15.02-.07.04-.14.06-.24.01-.04.02-.09.03-.14,0-.05.02-.1.03-.16.01-.11.03-.23.03-.36.01-.13,0-.26,0-.4-.02-.14-.01-.28-.04-.42-.02-.14-.03-.29-.07-.44l-.04-.22c-.02-.07-.04-.14-.06-.22-.02-.07-.04-.14-.05-.21-.02-.07-.04-.14-.06-.21-.05-.13-.07-.27-.12-.39-.04-.12-.08-.24-.12-.35-.03-.11-.07-.21-.11-.3-.03-.09-.06-.17-.08-.23-.04-.13-.06-.21-.06-.21,0,0,.06.06.15.16.04.05.1.12.16.2.06.08.13.16.19.27.06.1.13.21.2.33.07.12.13.25.19.39.07.14.12.28.16.44.02.08.05.15.07.23l.05.24c.04.16.05.32.06.48,0,.08,0,.16,0,.24,0,.08,0,.16,0,.24-.02.15-.03.3-.07.44-.02.07-.03.14-.05.2-.02.06-.05.12-.07.18-.05.11-.1.22-.15.3-.05.09-.1.16-.15.21-.09.11-.16.16-.16.16h0Z"/>
        <path class="cls-12" d="m240.81,37.5s.1-.11.28-.33c.19-.21.46-.53.81-.92.35-.39.79-.87,1.29-1.41.5-.54,1.07-1.14,1.72-1.78.65-.63,1.35-1.33,2.19-1.96.22-.16.43-.32.7-.44.13-.05.26-.09.39-.14.12-.05.22-.11.34-.17.24-.13.49-.26.74-.38.13-.06.26-.11.39-.17l.2-.09.2-.07c1.08-.4,2.25-.65,3.43-.82.3-.03.6-.07.9-.1.15-.02.3-.03.45-.05l.45-.03c.3-.02.6-.04.91-.06.3-.02.61-.02.91-.03.61-.01,1.21-.03,1.82-.02.3,0,.6,0,.9.01.3,0,.6,0,.9.02.59.03,1.19.06,1.77.08.29.01.58.03.87.06.29.02.57.04.86.07.57.05,1.12.08,1.66.14.54.06,1.07.11,1.59.17.26.03.51.05.76.08.25.03.49.04.75.09.49.09.95.23,1.38.39.86.32,1.6.74,2.19,1.19.29.24.56.45.78.69.24.22.41.46.58.66.09.1.16.21.22.3.06.1.13.19.18.28.12.17.19.33.26.46.13.25.2.39.2.39,0,0-.08-.13-.22-.37-.13-.25-.38-.59-.71-.99-.18-.19-.36-.42-.6-.62-.22-.22-.5-.43-.79-.64-.59-.42-1.33-.79-2.18-1.08-.42-.14-.87-.26-1.35-.33-.23-.04-.48-.05-.73-.07-.25-.02-.51-.04-.76-.06-.52-.04-1.05-.09-1.59-.13-.54-.04-1.1-.07-1.66-.11-.28-.02-.57-.04-.85-.05-.29-.02-.57-.04-.86-.04-.58-.02-1.17-.04-1.76-.07-.3-.02-.59-.01-.89-.02-.3,0-.6,0-.9,0-.6-.01-1.2,0-1.8.02-.3.01-.6,0-.9.03-.3.02-.6.04-.9.05l-.45.03c-.15.01-.3.03-.44.05-.3.03-.59.06-.88.09-1.16.17-2.31.38-3.35.76l-.2.07-.19.08c-.13.05-.25.1-.38.16-.25.12-.49.23-.74.36-.13.06-.27.13-.39.18-.12.04-.25.08-.37.13-.22.09-.43.24-.64.38-.41.29-.8.62-1.17.93-.37.32-.72.63-1.05.94-1.32,1.23-2.39,2.3-3.13,3.05-.74.75-1.16,1.18-1.16,1.18h0Z"/>
        <path class="cls-14" d="m242.3,37.37s.06-.08.18-.22c.12-.14.29-.36.52-.62.45-.53,1.1-1.3,1.9-2.18.4-.44.84-.92,1.32-1.42.48-.49.99-1.01,1.58-1.5.16-.12.3-.24.5-.35.02-.01.06-.03.08-.04l.04-.02h.02s.03-.02.03-.02h0s.14-.03.14-.03c.09-.02.19-.04.29-.05.41-.06.79-.09,1.19-.12.79-.05,1.59-.09,2.39-.12.4-.01.8-.02,1.2-.02.4,0,.8,0,1.19,0,.2,0,.39,0,.59,0,.2,0,.39,0,.58.01.39,0,.77.01,1.14.03.37.01.74.02,1.1.04.36.02.71.04,1.06.06.69.05,1.33.09,1.93.17.3.03.58.06.86.1.27.04.53.08.77.11.24.03.47.07.67.12.21.04.4.08.57.11.34.07.61.15.79.2.18.05.28.07.28.07,0,0-.1-.02-.28-.05-.19-.03-.45-.08-.8-.13-.17-.02-.36-.04-.57-.07-.21-.03-.43-.05-.68-.07-.24-.02-.5-.04-.77-.06-.27-.02-.56-.03-.86-.05-.3-.02-.61-.04-.93-.04-.32-.01-.65-.03-1-.04-.68-.02-1.4-.03-2.15-.04-.75,0-1.52,0-2.3,0-.39,0-.79,0-1.18.02-.4,0-.79.02-1.19.03-.8.02-1.59.05-2.37.1-.39.03-.78.05-1.14.09-.09,0-.18.02-.28.04l-.14.03h0s.02,0,0,0h-.01s-.02.01-.02.01c-.02,0-.03,0-.05.02-.14.07-.29.18-.43.29-.57.45-1.1.95-1.59,1.42-.49.47-.95.93-1.38,1.35-.84.85-1.55,1.55-2.03,2.06-.49.5-.77.78-.77.78h0Z"/>
        <path class="cls-15" d="m266.22,55.02s.42-.57,1.12-1.37c.35-.4.76-.86,1.22-1.33.23-.24.47-.48.72-.73.25-.24.51-.49.76-.73.26-.24.53-.47.79-.7.26-.23.53-.44.79-.65.26-.21.52-.4.77-.57.25-.18.49-.33.73-.47.23-.14.45-.25.65-.34.2-.09.38-.15.53-.19.07-.03.15-.03.21-.04.03,0,.06,0,.08-.01.03,0,.05,0,.07,0,.08,0,.13,0,.13,0,0,0-.04,0-.13.02-.02,0-.04,0-.07.01-.02,0-.05.02-.08.03-.05.02-.12.04-.19.07-.14.06-.3.15-.48.26-.18.11-.37.25-.58.41-.21.16-.43.33-.66.52-.23.19-.47.4-.72.61-.25.21-.5.45-.76.67-.26.23-.51.47-.77.71-.26.24-.52.47-.77.71-.25.24-.5.47-.74.69-.24.22-.47.44-.7.65-.22.2-.43.4-.63.58-.78.72-1.31,1.18-1.31,1.18h0Z"/>
      </g>
    </g>
    <g id="Layer_1-2" data-name="Layer 1-2">
      <circle class="cls-17" cx="251.63" cy="45.99" r="30.51"/>
      <line class="cls-11" x1="271.4" y1="70.08" x2="284.72" y2="83.87"/>
      <circle class="cls-17" cx="251.63" cy="45.99" r="32.15"/>
      <path class="cls-17" d="m224.43,39.72c.92-3.41,3.61-11.37,11.21-16.73,2.04-1.44,4.06-2.43,5.88-3.12"/>
    </g>
  </g>
  <line class="cls-11" x1="295.67" y1="8.24" x2="295.67" y2="84.44"/>
  <text class="cls-34" transform="translate(316.25 668.72)"><tspan class="cls-65" x="0" y="0">G</tspan><tspan class="cls-45" x="7.97" y="0">S</tspan><tspan class="cls-65" x="13.5" y="0">T</tspan><tspan class="cls-57" x="0" y="38.7">P</tspan><tspan class="cls-45" x="6.34" y="38.7">S</tspan><tspan class="cls-65" x="11.88" y="38.7">T</tspan></text>
</svg>