<?xml version="1.0" encoding="UTF-8" standalone="no"?>
<svg
   id="Layer_1"
   data-name="Layer 1"
   viewBox="0 0 284750.32 444588.89"
   version="1.1"
   sodipodi:docname="logo-lines.svg"
   inkscape:export-filename="logo-lines3.svg"
   inkscape:export-xdpi="96"
   inkscape:export-ydpi="96"
   width="284750.31"
   height="444588.91"
   xmlns:inkscape="http://www.inkscape.org/namespaces/inkscape"
   xmlns:sodipodi="http://sodipodi.sourceforge.net/DTD/sodipodi-0.dtd"
   xmlns="http://www.w3.org/2000/svg"
   xmlns:svg="http://www.w3.org/2000/svg">
  <sodipodi:namedview
     id="namedview4"
     pagecolor="#ffffff"
     bordercolor="#000000"
     borderopacity="0.25"
     inkscape:showpageshadow="2"
     inkscape:pageopacity="0.0"
     inkscape:pagecheckerboard="0"
     inkscape:deskcolor="#d1d1d1" />
  <defs
     id="defs1">
    <style
       id="style1">&#10;      .cls-1, .cls-2 {&#10;        fill: none;&#10;      }&#10;&#10;      .cls-2 {&#10;        stroke: #231f20;&#10;        stroke-miterlimit: 10;&#10;      }&#10;    </style>
  </defs>
  <path
     id="path4"
     class="cls-2"
     d="m 280.6338,521.56 -0.04,0.09 m 113.73,91.48 c -3.79,10.67 -11.34,19 -22.67,24.98 -11.33,5.97 -28.12,8.96 -50.37,8.96 v 0.42 l -2.4,-0.42 c 10.06,-2.28 23.7,-6.62 38.16,-15.38 10.73,-6.49 16.95,-9.36 21.05,-15.91 9.36,-15.01 2.01,-35.57 -0.49,-42.78 -11.38,-32.92 -36.92,-122.25 -71.84,-244.28 v -5.21 l 77.22,207.05 c 5.88,16.23 10.17,31.37 12.91,45.46 2.73,14.07 2.2,26.47 -1.57,37.13 z m -113.73,-91.48 c -4.66,12.29 -10.1,24.01 -16.29,35.16 -12.81,23.04 -28.86,41.92 -48.16,56.64 -19.31,14.74 -42.18,22.09 -68.62,22.09 -31.07,0 -55.31,-10.13 -72.71,-30.4 -1.81,-2.1 -6.99,-8.14 -12.05,-17.21 -1.96,-3.55 -11.37,-20.91 -13.62,-46.66 -0.47,-5.34 -0.47,-9.34 -0.47,-11.99 0,-26.45 5.03,-49.51 15.11,-69.14 10.07,-19.62 22.75,-37.13 38.08,-52.49 15.33,-15.37 31.79,-29.01 49.42,-40.97 12.29,-8.32 24.01,-16.49 35.17,-24.52 -22.88,18.83 -40.68,36.64 -53.87,51.04 -28.74,31.37 -47.71,52.55 -57.75,86.95 -5.68,19.42 -14.7,50.28 0,81.19 17.51,36.84 60.59,56.6 97.4,52.39 21.64,-2.47 36.68,-12.72 49.27,-21.3 34.03,-23.21 51.23,-53.91 59.08,-70.77 z m 199.97,99.16 c -12.18,-17.49 -25.18,-43.95 -39.03,-79.38 L 240.0638,0.5 h -6.3 c -10.07,26.47 -19.1,50.8 -27.06,72.99 -7.98,22.19 -15.85,43.75 -23.62,64.66 -7.77,20.91 -15.73,42.24 -23.93,64.01 -8.18,21.76 -17.1,45.46 -26.75,71.06 -3.36,8.53 -4,16.31 -1.89,23.37 2.1,7.04 7.56,10.56 16.37,10.56 8.81,0 16.78,-3.52 23.93,-10.56 7.13,-7.05 13.96,-14.74 20.47,-23.05 6.5,-8.33 12.99,-16 19.51,-23.05 6.51,-7.04 13.55,-10.56 21.1,-10.56 4.18,0 7.75,1.39 10.69,4.16 2.94,2.77 4.41,7.14 4.41,13.11 0,11.1 -6.19,22.2 -18.56,33.29 -12.39,11.1 -27.92,22.72 -46.6,34.88 -18.67,12.16 -38.94,25.41 -60.75,39.7 -21.84,14.3 -42.09,30.09 -60.76,47.37 -18.67,17.29 -34.21,36.49 -46.58,57.62 -12.3899997,21.13 -18.5699997,44.92 -18.5699997,71.38 0,16.65 2.51,32.54 7.56,47.7 5.04,15.15 12.4899997,28.38 22.3399997,39.68 9.86,11.32 21.94,20.39 36.2,27.22 14.27,6.82 30.42,10.24 48.48,10.24 31.48,0 59.51,-6.72 84.05,-20.16 24.55,-13.44 45.33,-32.01 62.33,-55.69 16.99,-23.68 30,-51.96 39.03,-84.82 9.03,-32.86 13.55,-68.71 13.55,-107.56 0,-27.09 -0.99,-50.19 -2.94,-69.32 -0.27,-2.56 -0.55,-5.06 -0.85,-7.48 l 0.85,2.27 77.22,207.05 c 5.88,16.23 10.17,31.37 12.91,45.46 2.73,14.07 2.2,26.47 -1.57,37.13 -3.79,10.67 -11.34,19 -22.67,24.98 -11.33,5.97 -28.12,8.96 -50.37,8.96 v 6.39 h 206.5 v -6.39 c -19.31,0 -35.04,-8.75 -47.22,-26.25 z m -187.62,-140.52 c -3.23,14.4 -7.34,28.16 -12.32,41.26 -0.01,0.03 -0.03,0.06 -0.04,0.09 -4.66,12.29 -10.1,24.01 -16.29,35.16 -12.81,23.04 -28.86,41.92 -48.16,56.64 -19.31,14.74 -42.18,22.09 -68.62,22.09 -31.07,0 -55.31,-10.13 -72.71,-30.4 -1.81,-2.1 -6.99,-8.14 -12.05,-17.21 -1.96,-3.55 -11.37,-20.91 -13.62,-46.66 -0.47,-5.34 -0.47,-9.34 -0.47,-11.99 0,-26.45 5.03,-49.51 15.11,-69.14 10.07,-19.62 22.75,-37.13 38.08,-52.49 15.33,-15.37 31.79,-29.01 49.42,-40.97 12.29,-8.32 24.01,-16.49 35.17,-24.52 4.86,-3.48 9.6,-6.94 14.25,-10.37 5.92,-4.37 11.43,-8.75 16.55,-13.18 8.16,-7.04 15.35,-14.16 21.54,-21.38 10.07,-11.73 15.11,-24.64 15.11,-38.73 0,-8.53 -2.01,-14.82 -5.99,-18.87 -3.98,-4.06 -8.91,-6.09 -14.79,-6.09 -8.4,0 -16.16,3.52 -23.29,10.57 -7.15,7.04 -14.17,14.72 -21.1,23.04 -6.92,8.33 -13.74,16.01 -20.45,23.05 -6.72,7.04 -13.64,10.56 -20.78,10.56 -5.04,0 -8.5,-2.24 -10.4,-6.72 -1.88,-4.48 -0.73,-12.26 3.47,-23.37 l 72.39,-195.88 76.19,204.21 c 5.88,19.2 9.53,38.09 11.02,56.66 1.47,18.56 2.2,39.8 2.2,63.69 0,26.02 -3.15,53.02 -9.45,80.97 z" />
</svg>
